<!DOCTYPE svg PUBLIC "-//W3C//DTD SVG 1.1//EN" "http://www.w3.org/Graphics/SVG/1.1/DTD/svg11.dtd">
<!-- Uploaded to: SVG Repo, www.svgrepo.com, Transformed by: SVG Repo Mixer Tools -->
<svg fill="#1ed760" width="800px" height="800px" viewBox="0 0 24 24" xmlns="http://www.w3.org/2000/svg">
<g id="SVGRepo_bgCarrier" stroke-width="0"/>
<g id="SVGRepo_tracerCarrier" stroke-linecap="round" stroke-linejoin="round"/>
<g id="SVGRepo_iconCarrier">
<path d="M7,20a1,1,0,0,1-1,1H2a1,1,0,0,1,0-2H6A1,1,0,0,1,7,20ZM6,15H2a1,1,0,0,0,0,2H6a1,1,0,0,0,0-2Zm0-4H2a1,1,0,0,0,0,2H6a1,1,0,0,0,0-2Zm8,8H10a1,1,0,0,0,0,2h4a1,1,0,0,0,0-2Zm0-4H10a1,1,0,0,0,0,2h4a1,1,0,0,0,0-2Zm0-4H10a1,1,0,0,0,0,2h4a1,1,0,0,0,0-2Zm0-4H10a1,1,0,0,0,0,2h4a1,1,0,0,0,0-2Zm0-4H10a1,1,0,0,0,0,2h4a1,1,0,0,0,0-2Zm8,16H18a1,1,0,0,0,0,2h4a1,1,0,0,0,0-2Zm0-4H18a1,1,0,0,0,0,2h4a1,1,0,0,0,0-2Z"/>
</g>
</svg>