<?xml version="1.0" encoding="iso-8859-1"?>
<!-- Uploaded to: SVG Repo, www.svgrepo.com, Generator: SVG Repo Mixer Tools -->
<svg fill="#fff" height="800px" width="800px" version="1.1" id="Layer_1" xmlns="http://www.w3.org/2000/svg" xmlns:xlink="http://www.w3.org/1999/xlink" 
	 viewBox="0 0 507.993 507.993" xml:space="preserve">
<g>
	<g>
		<path d="M463.955,44.027c-58.6-58.7-153.7-58.7-212.3,0c-37.6,37.6-51,90.3-40.3,138.7l-193.6,212.1c-24.5,26.8-23.5,68,2.1,93.6
			c35.9,35.9,81.1,13.6,93.6,2.1l212-193.8c48.4,10.7,100.9-2.7,138.6-40.3C522.656,197.827,522.656,102.727,463.955,44.027z
			 M94.356,469.727c-7.3,6.7-33.4,19.9-54.5-1.2c-15-15-15.5-38.9-1.2-54.6l182.6-200.1c7.4,15.9,17.6,30.5,30.1,43
			s27.1,22.7,43,30.1L94.356,469.727z M271.655,236.527c-46.6-46.6-47.4-121.5-2.9-169.3c22.8,31.8,49.2,63,79.1,92.9
			c29.9,29.9,61.2,56.3,93,79.2C393.056,283.927,318.255,283.127,271.655,236.527z M459.255,217.827c-31.3-22.3-62-48.2-91.5-77.7
			c-29.4-29.4-55.3-60.1-77.5-91.3c47.4-31.7,112-26.6,153.7,15.2C485.755,105.827,490.855,170.427,459.255,217.827z"/>
	</g>
</g>
<g>
	<g>
		<path d="M216.755,291.427c-5.5-5.5-14.4-5.5-20,0l-25.8,25.8c-5.5,5.5-5.5,14.5,0,20c4.6,4.6,13.7,6.3,20,0l25.8-25.8
			C222.255,305.927,222.255,296.927,216.755,291.427z"/>
	</g>
</g>
</svg>